<svg id="Capa_1" data-name="Capa 1" xmlns="http://www.w3.org/2000/svg" viewBox="0 0 51.72 23.01"><defs><style>.cls-1{fill:#323232;}</style></defs><title>logo-brl-2</title><path class="cls-1" d="M13.53,18.39a1.16,1.16,0,0,1,.38.77,1,1,0,0,1-1,.95,1,1,0,0,1-.54-.2L9,17.31a3.94,3.94,0,0,0,.64.11.86.86,0,0,0,.83-.86,1.09,1.09,0,0,0-.29-.8Z"/><path class="cls-1" d="M25.33,11.26A5,5,0,0,1,26.85,15a4.89,4.89,0,0,1-5.14,5.09,11.15,11.15,0,0,1-3.26-.63l-3.31-2.67a8.88,8.88,0,0,0,3.26.63,4.92,4.92,0,0,0,5.05-5.07,5.63,5.63,0,0,0-.68-2.72,5,5,0,0,0-.95-1.16Zm-6-5.62v2a4.73,4.73,0,0,0-3.4,1.54V2.9ZM15.91,10a4.37,4.37,0,0,1,3.31-1.7A3.6,3.6,0,0,1,22.48,11a4.49,4.49,0,0,0-3.17,1.72v3.8a4.46,4.46,0,0,1-1,.1,3.82,3.82,0,0,1-2.42-.73Z"/><path class="cls-1" d="M29.28,17.24V11c.5-.72,1.79-2.58,3.06-2.58a2.7,2.7,0,0,1,2,1.07l.48-.68a2,2,0,0,0-.54-.59l3.37,2.67a2.82,2.82,0,0,1,.59.61l-.47.68-.48-.41a2.33,2.33,0,0,0-1.43-.61c-.59,0-1.74.36-3.17,2.56v6.23h-.75l-3.4-2.67Zm1.25-8.47a8.21,8.21,0,0,0-1.25,1.44V7.72Z"/><path class="cls-1" d="M42.68,5.59V19.91h-.75l-3.38-2.67h.73V2.9Z"/></svg>