<svg xmlns="http://www.w3.org/2000/svg" viewBox="0 0 140.85 142.07"><defs><style>.cls-1{fill:#3249e4;}</style></defs><title>Recurso 2</title><g id="Capa_2" data-name="Capa 2"><g id="Capa_1-2" data-name="Capa 1"><path class="cls-1" d="M31.57,36.43c2.78,2,3,4.59.79,7.71s-4.77,3.63-7.56,1.6L12.65,36.9c-2.77-2-3-4.58-.78-7.68s4.78-3.65,7.56-1.63l2.67,1.94-2.36,3.24-2.67-1.94a1.5,1.5,0,0,0-2.36.44l0,0A1.49,1.49,0,0,0,15,33.66L27.16,42.5a1.5,1.5,0,0,0,2.36-.43,1.52,1.52,0,0,0-.3-2.4l-2.67-1.94,2.36-3.24Z"/><path class="cls-1" d="M42.59,27.34q3.18,4.07-1.35,7.62t-7.72-.53L24.27,22.59q-3.16-4.05,1.36-7.6t7.71.52ZM30.19,18a1.51,1.51,0,0,0-2.4-.23l0,0a1.5,1.5,0,0,0-.34,2.37L36.68,32a1.5,1.5,0,0,0,2.39.24,1.51,1.51,0,0,0,.37-2.39Z"/><path class="cls-1" d="M38.07,7.3,41.8,5.82l8.77,11.85L45.33,4.43l3.45-1.37,9,22.83-3.72,1.48L45.62,15.89l5.07,12.82-3.58,1.42Z"/><path class="cls-1" d="M67.76,0l.37,3.46-3.73.4,2.2,21-4,.42L60.41,4.28l-3.73.39L56.31,1.2Z"/><path class="cls-1" d="M83.87,17.63l-.09,8.8-4-.64.06-5.27-4-.64-1.61,5-4-.64,2.66-8.37L78.17.67l5.42.86Zm-4-.64L80,6.65,76.85,16.5Z"/><path class="cls-1" d="M96.75,27.44q-2.2,4.65-7.42,2.21t-3-7.14L92.77,8.93q2.2-4.65,7.4-2.2t3,7.13l-1.41,3-3.62-1.71,1.41-3a1.51,1.51,0,0,0-.86-2.24h0a1.5,1.5,0,0,0-2.27.76L90,24.23a1.75,1.75,0,0,0,3.17,1.49l1.41-3,3.62,1.72Z"/><path class="cls-1" d="M120,20.85l-2.26,2.66-2.86-2.43L101.23,37.13l-3-2.6,13.65-16L109,16.05l2.26-2.65Z"/><path class="cls-1" d="M119.53,50.07l17.3-2.3,1.57,3.68-22.59,9.62-1.51-3.53L127,52.14l-14,2.25-1.06-2.51,11.29-8.64-12.67,5.4L109,45.07l22.59-9.62,1.57,3.69Z"/><path class="cls-1" d="M140.15,61.44l.7,10.37-3.48.23L137,65.67l-7,.47.37,5.48-3.5.24-.37-5.48-7,.47.43,6.37-3.49.23-.69-10.37Z"/><path class="cls-1" d="M116.1,93.54q-4.87-1.68-3-7.13t6.77-3.74l14.19,4.91q4.88,1.68,3,7.12c-1.25,3.63-3.51,4.88-6.75,3.76l-3.12-1.08,1.31-3.79,3.12,1.08a1.5,1.5,0,0,0,2.13-1.1v0a1.49,1.49,0,0,0-1-2.17l-14.19-4.92a1.75,1.75,0,0,0-1.15,3.31l3.12,1.08-1.31,3.78Z"/><path class="cls-1" d="M108.18,105.45q-4.22-3-.91-7.69T114.81,96l12.28,8.64q4.22,3,.91,7.67c-2.21,3.14-4.73,3.73-7.53,1.75Zm14.59,5.37a1.5,1.5,0,0,0,2.36-.47l0,0a1.5,1.5,0,0,0-.36-2.37L112.5,99.31a1.75,1.75,0,0,0-2,2.86Z"/><path class="cls-1" d="M118.35,123.29l-3.14,2.5L103.37,117l8.87,11.14-2.9,2.32L94.05,111.26l3.13-2.5,11.45,8.51L100,106.49l3-2.4Z"/><path class="cls-1" d="M92.11,138.94l-1.37-3.21,3.46-1.47-8.26-19.38,3.69-1.57,8.25,19.38,3.46-1.47,1.36,3.21Z"/><path class="cls-1" d="M71.52,126.74l-2.46-8.45,4-.54,1.47,5,4.06-.54.09-5.27,4-.54-.12,8.77-.68,16.11-5.45.74Zm4-.54,2.88,9.93.15-10.34Z"/><path class="cls-1" d="M56.34,121.12q.75-5.1,6.45-4.28t4.94,5.94l-2.17,14.87q-.75,5.1-6.43,4.27t-5-5.94l.48-3.26,4,.58-.48,3.26a1.51,1.51,0,0,0,1.49,1.9h0a1.49,1.49,0,0,0,1.94-1.39l2.18-14.87c.16-1.09-.34-1.72-1.49-1.89a1.51,1.51,0,0,0-2,1.39L59.83,125l-4-.58Z"/><path class="cls-1" d="M36,134.19,37.4,131l3.44,1.5,8.39-19.33,3.68,1.6-8.39,19.32,3.44,1.5-1.39,3.19Z"/><path class="cls-1" d="M28,106.1l-15.88,7.24-2.58-3.07L28.35,94.49l2.47,2.94-10.56,8.86L33,100.06l1.74,2.08L26.47,113.7,37,104.85l2.49,3L20.71,123.59l-2.58-3.07Z"/><path class="cls-1" d="M5,101.3,1.24,91.6,4.5,90.35l2.29,6,6.57-2.53-2-5.13,3.28-1.26,2,5.13L23.19,90,20.9,84l3.26-1.26,3.73,9.71Z"/><path class="cls-1" d="M0,75A1.33,1.33,0,0,0,1.32,76.3h16.5A1.33,1.33,0,0,0,19.13,75V49.91a1.33,1.33,0,0,0-1.31-1.32H1.32A1.33,1.33,0,0,0,0,49.91Zm1.32-.66V50.57L12,61.91A.89.89,0,0,1,12,63Zm1.2.66,7.25-7.71L17,75Zm0-25.07H17L9.77,57.62Zm8.16,16.4L13,63.89A2.12,2.12,0,0,0,13,61l-2.29-2.42,7.14-7.66V74Z"/></g></g></svg>